<?xml version="1.0" encoding="UTF-8"?>
<svg version="1.1" xmlns="http://www.w3.org/2000/svg" width="679" height="676">
<path d="M0 0 C1.73058724 -0.00231251 3.46117349 -0.00549426 5.19175774 -0.00945449 C9.88331475 -0.01770287 14.57478903 -0.01372327 19.2663461 -0.00748205 C24.35097536 -0.00291716 29.43559136 -0.00996117 34.5202179 -0.01544189 C44.45606119 -0.02429503 54.39187411 -0.02243211 64.32771855 -0.01661661 C72.40963412 -0.01208373 80.49154124 -0.01149423 88.57345772 -0.01366425 C89.7275611 -0.01397071 90.88166448 -0.01427718 92.07074069 -0.01459293 C94.41593265 -0.01523244 96.76112461 -0.01588087 99.10631657 -0.01653811 C121.05318691 -0.02222952 143.00004048 -0.01570236 164.94690806 -0.00493738 C183.74049776 0.00399585 202.53406273 0.00244565 221.32765198 -0.0067749 C243.19913914 -0.01750065 265.07061164 -0.02167906 286.94210106 -0.01555037 C289.27855019 -0.01491334 291.61499931 -0.01428459 293.95144844 -0.01366425 C295.10075593 -0.01335569 296.25006343 -0.01304714 297.43419842 -0.01272924 C305.497217 -0.01100912 313.56022621 -0.01390265 321.62324333 -0.01862335 C331.46258688 -0.02425791 341.30189856 -0.022662 351.1412385 -0.01206186 C356.15248129 -0.00683943 361.16367112 -0.00468923 366.17491341 -0.01136017 C400.77642195 -0.05323231 400.77642195 -0.05323231 413.23745728 1.0826416 C414.00107022 1.15173414 414.76468316 1.22082668 415.55143589 1.29201293 C443.45689916 4.44027261 469.84628255 20.43076905 489.82936096 39.25396729 C490.55510315 39.90365479 491.28084534 40.55334229 492.02857971 41.22271729 C513.72244169 61.47551482 527.40671456 93.5101957 529.03237802 122.92770147 C529.06811117 124.18284379 529.10384431 125.4379861 529.14066029 126.73116302 C529.16108849 127.43185726 529.18151669 128.1325515 529.20256393 128.8544789 C529.26760477 131.1592097 529.32582214 133.46403801 529.38278198 135.76898193 C529.40373435 136.57713118 529.42468673 137.38528043 529.44627402 138.21791905 C529.91608762 156.57725321 529.9798394 174.93250446 529.97474468 193.29686427 C529.97453572 198.0260424 529.98010455 202.75521493 529.98480225 207.48439026 C529.99299925 216.68730099 529.99585185 225.8902053 529.99641462 235.09311938 C529.99689417 242.57870749 529.9989704 250.06429353 530.00211525 257.54988098 C530.0108845 278.86187522 530.01553941 300.17386447 530.01478478 321.48586053 C530.01472484 323.19807777 530.01472484 323.19807777 530.0146637 324.94488525 C530.01460238 326.6592327 530.01460238 326.6592327 530.01453982 328.40821344 C530.01413229 346.97971327 530.02373829 365.55119293 530.03780206 384.12268692 C530.05219242 403.27880132 530.05907109 422.43490589 530.05820829 441.59102583 C530.0578777 452.31167426 530.06056525 463.03230143 530.07138634 473.75294495 C530.08052553 482.86357775 530.08263789 491.9741796 530.07587691 501.08481503 C530.07263162 505.72150557 530.07248278 510.3581368 530.08123016 514.99482155 C530.16291725 561.26681379 525.45064134 599.08690456 492.82936096 634.25396729 C491.73107971 635.45859619 491.73107971 635.45859619 490.61061096 636.68756104 C470.07245282 658.27787892 437.67478394 671.59346303 408.10628796 672.34911394 C403.40611724 672.40205631 398.7059118 672.3970718 394.00550842 672.39440918 C392.1784447 672.39699531 390.35138155 672.40000916 388.52431917 672.40341258 C383.51517214 672.41145673 378.50603946 672.41327071 373.49688673 672.41401005 C368.08971239 672.41586512 362.68254542 672.42341473 357.27537537 672.43014526 C345.45696298 672.44371074 333.63855399 672.44975052 321.82013512 672.45415592 C314.43629256 672.45692137 307.0524513 672.46115927 299.66860962 672.4656601 C279.21232434 672.47785044 258.75604011 672.48815021 238.29975128 672.49153519 C236.99122453 672.49175475 235.68269778 672.49197432 234.3345187 672.49220054 C233.0229175 672.49241882 231.7113163 672.49263709 230.35996962 672.49286199 C227.70230579 672.49330545 225.04464197 672.49375201 222.38697815 672.49420166 C221.06869398 672.49442309 219.75040981 672.49464452 218.39217764 672.49487266 C197.03881402 672.49881936 175.68548888 672.51627053 154.33213776 672.53956118 C132.39257863 672.56329745 110.45303663 672.57573807 88.51346445 672.5769031 C76.20184881 672.57781858 63.89027767 672.5835389 51.57867432 672.60172272 C41.09372596 672.61715442 30.60883586 672.62222606 20.1238783 672.61398461 C14.7790125 672.61008899 9.43426392 672.61095441 4.08941269 672.62504196 C-0.8135731 672.63784614 -5.71635435 672.63652658 -10.61934012 672.62445125 C-12.38315929 672.62250548 -14.14699328 672.62552018 -15.9107917 672.63429561 C-52.54767712 672.80488089 -85.50288336 659.46636855 -111.75218201 633.690979 C-147.08989928 597.89101276 -147.5037928 550.71648899 -147.41742933 503.5983851 C-147.41075369 498.73273745 -147.4158218 493.86709862 -147.41931152 489.00144958 C-147.42431308 479.50859554 -147.41876391 470.01577676 -147.40946122 460.52292711 C-147.39899982 449.44364525 -147.39914943 438.36437071 -147.3996338 427.28508484 C-147.40013268 407.50859167 -147.39101873 387.73211475 -147.37644958 367.95562744 C-147.3623504 348.80686141 -147.35527963 329.65810967 -147.35594177 310.50933838 C-147.35598173 309.32856122 -147.35602168 308.14778406 -147.35606285 306.93122578 C-147.35610321 305.75239669 -147.35614356 304.5735676 -147.35618514 303.35901642 C-147.35687637 281.48815652 -147.35097904 259.61730264 -147.34203192 237.7464447 C-147.33902704 230.03962179 -147.33795375 222.33279999 -147.33749962 214.62597656 C-147.33681484 205.22916711 -147.33231318 195.83236782 -147.32316681 186.43556267 C-147.3185767 181.64946875 -147.31549296 176.86338775 -147.31676102 172.07729149 C-147.3178684 167.68447153 -147.31426368 163.29167998 -147.30711249 158.89886594 C-147.30532228 157.32194533 -147.3051458 155.74502174 -147.30687978 154.16810107 C-147.31490687 145.94927489 -147.15968765 137.76365833 -146.71208668 129.55583191 C-146.65145421 128.44346817 -146.65145421 128.44346817 -146.58959685 127.30863243 C-146.24209787 121.47861053 -145.53507786 115.79582583 -144.42063904 110.06646729 C-144.24435974 109.14140381 -144.06808044 108.21634033 -143.88645935 107.26324463 C-137.05205533 72.94213193 -116.23104987 44.59955928 -88.17063904 24.25396729 C-87.38946716 23.67775635 -86.60829529 23.10154541 -85.80345154 22.50787354 C-71.26154813 12.25396729 -71.26154813 12.25396729 -64.17063904 12.25396729 C-63.84063904 11.59396729 -63.51063904 10.93396729 -63.17063904 10.25396729 C-61.28465271 9.47613525 -61.28465271 9.47613525 -58.83860779 8.74615479 C-57.95753357 8.48189697 -57.07645935 8.21763916 -56.16868591 7.94537354 C-55.24120544 7.67595947 -54.31372498 7.40654541 -53.35813904 7.12896729 C-51.98432068 6.71324463 -51.98432068 6.71324463 -50.58274841 6.28912354 C-46.55195949 5.0972078 -43.41790948 4.25396729 -39.17063904 4.25396729 C-38.84063904 3.59396729 -38.51063904 2.93396729 -38.17063904 2.25396729 C-35.17421246 1.7663569 -32.26218493 1.41201417 -29.24380398 1.14484024 C-28.33963901 1.06057451 -27.43547405 0.97630878 -26.50391015 0.88948955 C-17.66090894 0.11866724 -8.87058828 -0.02641674 0 0 Z M-2.54563904 120.75396729 C-3.00712341 121.32115479 -3.46860779 121.88834229 -3.94407654 122.47271729 C-7.99733921 128.3589841 -8.29520594 134.23291576 -8.29927349 141.26370811 C-8.30102653 141.948649 -8.30277957 142.63358989 -8.30458573 143.33928657 C-8.30923574 145.63324468 -8.30678281 147.92713913 -8.30435181 150.22109985 C-8.30622028 151.88287172 -8.30852113 153.54464314 -8.31121713 155.20641387 C-8.31733699 159.77225212 -8.31720132 164.33807207 -8.31602275 168.9039135 C-8.3158188 173.82834531 -8.321337 178.75277124 -8.32608032 183.67720032 C-8.33438826 193.32450349 -8.33713522 202.97180055 -8.3376927 212.61910699 C-8.33816776 220.45976265 -8.34022198 228.3004163 -8.34339333 236.14107132 C-8.35219999 258.36612209 -8.35681264 280.59116804 -8.35606285 302.81622057 C-8.3560229 304.01448558 -8.35598294 305.21275059 -8.35594177 306.44732666 C-8.35590089 307.64705292 -8.35586001 308.84677918 -8.35581789 310.08286078 C-8.35541133 329.53162797 -8.36498337 348.98037581 -8.37908014 368.42913739 C-8.39343725 388.39442645 -8.4003507 408.35970606 -8.39948636 428.32500041 C-8.39915418 439.53586241 -8.40191057 450.74670413 -8.41266441 461.95756149 C-8.42176062 471.50153711 -8.42395188 481.04548324 -8.41715499 490.58946131 C-8.41388545 495.45925552 -8.41384878 500.32899311 -8.42250824 505.19878197 C-8.43035486 509.65728151 -8.42896063 514.11567938 -8.42022411 518.57417639 C-8.41868508 520.18651139 -8.42052043 521.79885392 -8.42608418 523.41118006 C-8.67099486 538.25941838 -8.67099486 538.25941838 -2.17063904 551.25396729 C4.86274062 558.24859554 12.2283061 559.35297098 21.85353088 559.43096924 C22.52924133 559.43754044 23.20495178 559.44411163 23.90113831 559.45088196 C26.12070356 559.47046965 28.34020158 559.48224576 30.55982971 559.49224854 C31.32390955 559.49632406 32.08798939 559.50039959 32.87522316 559.50459862 C36.92088671 559.52539904 40.96651697 559.53972582 45.01222229 559.5491333 C49.16340366 559.56017637 53.31404592 559.59456892 57.46503735 559.634305 C60.68150747 559.66060759 63.89785176 559.6688372 67.11441994 559.67241478 C68.64325406 559.67724673 70.17208388 559.68876232 71.70081139 559.70745277 C81.95709183 559.82504167 91.70264427 559.29439165 100.26686096 553.00396729 C107.3756462 545.37502703 107.4242141 538.16823341 107.41041565 528.16217041 C107.4224015 526.74540299 107.4360161 525.32864856 107.4511261 523.91191101 C107.48629629 520.0833866 107.49583007 516.25522028 107.49838924 512.42654991 C107.50124096 510.03101803 107.50979619 507.635576 107.52037811 505.24006653 C107.55732184 496.87305968 107.57372564 488.50630691 107.5705719 480.13922119 C107.56816721 472.35436871 107.61041966 464.5706235 107.67354655 456.78605127 C107.72591913 450.08767844 107.74730477 443.38966697 107.74475026 436.69109106 C107.74373274 432.6965618 107.75499937 428.70301869 107.79746246 424.70869446 C107.83631405 420.95207554 107.83642511 417.19737944 107.80739594 413.44069099 C107.80124912 411.41448222 107.8345132 409.38827239 107.86915588 407.36235046 C107.78269763 401.07822112 107.53611551 397.1850037 102.9790802 392.61468506 C101.60355826 391.48498263 100.22056786 390.36429676 98.82936096 389.25396729 C97.67961553 387.99056523 96.55285774 386.70541305 95.46217346 385.39068604 C91.1310291 380.36307007 86.41686615 375.73372685 81.70436096 371.06646729 C80.38371643 369.75259033 80.38371643 369.75259033 79.03639221 368.41217041 C74.64422167 364.03821596 74.64422167 364.03821596 70.22950745 359.68707275 C67.67381771 357.17453544 65.35226497 354.5753369 63.14186096 351.75396729 C62.26981018 350.65568604 62.26981018 350.65568604 61.38014221 349.53521729 C57.06493206 343.18740185 56.98062886 336.71934557 57.82936096 329.25396729 C59.70075376 323.45419623 62.37660864 318.28327413 67.82936096 315.25396729 C75.83693886 311.90457618 82.03284087 311.85861599 90.26686096 314.25396729 C100.72171933 319.25166021 109.3351713 330.68408191 117.40113831 338.92169189 C118.91459074 340.46513004 120.4340364 342.00245872 121.95436096 343.53912354 C122.84381409 344.44541504 123.73326721 345.35170654 124.64967346 346.28546143 C126.58723991 348.47738078 126.58723991 348.47738078 128.82936096 348.25396729 C129.09563293 348.85072266 129.36190491 349.44747803 129.63624573 350.06231689 C130.85893711 352.30829613 132.03334302 353.61475153 133.91920471 355.32037354 C134.53400696 355.88353271 135.1488092 356.44669189 135.78224182 357.0269165 C136.43716614 357.61746826 137.09209045 358.20802002 137.76686096 358.81646729 C139.12250997 360.05834066 140.4766615 361.30185054 141.82936096 362.54693604 C142.50225159 363.16616943 143.17514221 363.78540283 143.86842346 364.42340088 C148.31364079 368.57308209 152.57001503 372.91492465 156.82936096 377.25396729 C162.82028566 372.2875196 168.30944293 366.91550275 173.8037262 361.40899658 C174.78976173 360.42431849 175.77600934 359.43985273 176.76245117 358.45558167 C179.42130808 355.80125473 182.07702728 353.14380965 184.73202777 350.48562598 C187.51452154 347.70058988 190.29946621 344.91800629 193.08401489 342.13502502 C197.75182426 337.46903007 202.41753154 332.80094098 207.08204651 328.13165283 C212.48062723 322.72761173 217.88282681 317.32720831 223.28688282 311.92864293 C227.93001296 307.29004189 232.57120279 302.64950621 237.21075779 298.00732929 C239.9807118 295.23581383 242.75134293 292.46498438 245.52372551 289.69589806 C248.1238322 287.09866776 250.72150393 284.499027 253.31727028 281.89745903 C254.73017321 280.48259208 256.14555466 279.07020158 257.56098938 277.65786743 C258.39228867 276.82374832 259.22358795 275.98962921 260.08007812 275.13023376 C260.80842078 274.40151408 261.53676344 273.6727944 262.28717709 272.9219923 C263.94250539 271.51020766 263.94250539 271.51020766 263.82936096 270.25396729 C262.42736198 270.2572982 262.42736198 270.2572982 260.99703979 270.26069641 C181.60569457 270.44326368 181.60569457 270.44326368 151.96617126 270.04544067 C149.76688354 270.01800283 147.56750258 269.9971671 145.36808777 269.98324585 C142.36107191 269.96231157 139.35548579 269.91658337 136.34889221 269.86334229 C135.50266296 269.86210861 134.65643372 269.86087494 133.78456116 269.85960388 C126.55696494 269.67979579 120.62265511 267.55067581 115.01686096 262.94146729 C109.99603829 256.773028 107.70440334 251.17998851 107.70478821 243.18882751 C107.70222519 242.19223114 107.69966217 241.19563477 107.69702148 240.1688385 C107.69912125 239.08664536 107.70122101 238.00445221 107.7033844 236.88946533 C107.70151627 235.74091064 107.69964813 234.59235596 107.69772339 233.40899658 C107.69372244 230.91650809 107.69164483 228.42401595 107.69126129 225.93152428 C107.68740119 219.94595442 107.66131437 213.96047803 107.63804483 207.97495997 C107.60299603 198.79166189 107.57638185 189.60848049 107.57887268 180.42510986 C107.58063478 173.55919846 107.5562981 166.69374794 107.51699066 159.82795143 C107.50653013 157.21375356 107.50500694 154.5995039 107.51264191 151.98529625 C107.5222656 148.32525441 107.50107502 144.66657198 107.47291565 141.00665283 C107.48311234 139.93053238 107.49330902 138.85441193 107.5038147 137.74568176 C107.39458376 129.81469709 105.3188679 125.01189783 99.95045471 119.23052979 C99.11707581 118.56150635 99.11707581 118.56150635 98.26686096 117.87896729 C97.7086969 117.41748291 97.15053284 116.95599854 96.57545471 116.48052979 C92.09050031 113.3300249 88.39267181 112.95680237 82.97486877 112.96343994 C82.18734222 112.95672272 81.39981567 112.95000549 80.58842468 112.94308472 C77.98638078 112.92409701 75.38459483 112.92017977 72.78248596 112.91802979 C70.9689066 112.91160105 69.15532828 112.90487263 67.3417511 112.89785767 C63.53876849 112.88588202 59.73587672 112.882177 55.93287659 112.88336182 C51.07286938 112.88356471 46.21344885 112.8562942 41.35358047 112.8218174 C37.60620988 112.79951474 33.85897953 112.79552535 30.11154938 112.79658127 C28.32068109 112.79422916 26.5298087 112.78542771 24.73900604 112.76991653 C22.22607113 112.75019339 19.71438884 112.75611927 17.20143127 112.76812744 C16.4697171 112.75688843 15.73800293 112.74564941 14.9841156 112.73406982 C8.16035982 112.81641476 1.76936613 115.26667748 -2.54563904 120.75396729 Z M279.45436096 121.56646729 C278.99287659 122.0782251 278.53139221 122.58998291 278.05592346 123.11724854 C274.06366 130.07192406 274.55419231 138.0660164 274.60231018 145.82037354 C274.60201813 147.06024521 274.60172607 148.30011688 274.60142517 149.57756042 C274.60257455 152.95517565 274.61256105 156.33254226 274.62657309 159.71011353 C274.63912949 163.2481614 274.6402548 166.78621307 274.6426239 170.32427979 C274.64882431 177.01412118 274.6652155 183.70389671 274.68532288 190.39370918 C274.70772685 198.01405481 274.71868659 205.63440369 274.72871375 213.25477409 C274.74958311 228.92120988 274.7847309 244.58758007 274.82936096 260.25396729 C275.94451474 259.30521688 277.05865771 258.3552783 278.17237854 257.40484619 C278.79292618 256.87597809 279.41347382 256.34710999 280.05282593 255.80221558 C282.30723766 253.83749828 284.41972132 251.75999249 286.51686096 249.62896729 C287.60547424 248.52681885 287.60547424 248.52681885 288.71607971 247.40240479 C289.41346252 246.69342041 290.11084534 245.98443604 290.82936096 245.25396729 C291.57830627 244.54498291 292.32725159 243.83599854 293.09889221 243.10552979 C295.05696508 241.4328236 295.05696508 241.4328236 294.82936096 239.25396729 C295.78842346 238.85177979 295.78842346 238.85177979 296.76686096 238.44146729 C299.16067782 237.36728976 299.16067782 237.36728976 299.82936096 234.25396729 C301.13578423 233.5359976 302.47451276 232.87574584 303.82936096 232.25396729 C305.87224987 230.74973072 307.84735357 229.17709428 309.82936096 227.59381104 C314.77037727 224.28371613 321.10639238 224.65321368 326.82936096 225.25396729 C329.11898011 226.07703299 331.08240523 227.04549133 333.17311096 228.28131104 C334.98013802 229.41963075 334.98013802 229.41963075 337.82936096 230.25396729 C338.88014221 232.03521729 338.88014221 232.03521729 339.82936096 234.25396729 C340.37656799 235.32131104 340.37656799 235.32131104 340.93482971 236.41021729 C344.00692581 243.06457707 344.90035995 249.13383855 342.82936096 256.25396729 C339.16142396 263.47568155 334.54128812 269.09859871 328.76295471 274.71099854 C328.00644119 275.46185226 327.24992767 276.21270599 326.4704895 276.98631287 C324.07861177 279.35603687 321.67316209 281.71140004 319.26686096 284.06646729 C317.64939527 285.6638342 316.0328505 287.26213419 314.41725159 288.86138916 C311.45536978 291.79078057 308.4883993 294.71478465 305.5146637 297.63214111 C301.39970648 301.67080347 297.32479275 305.74794571 293.27076721 309.84771729 C291.97784482 311.14984665 290.68487515 312.45192907 289.39186096 313.75396729 C288.42796448 314.73043213 288.42796448 314.73043213 287.44459534 315.72662354 C284.58153296 318.60421923 281.72839106 321.40393461 278.57936096 323.96881104 C276.17586185 325.96603686 274.24729521 327.91608554 272.26686096 330.31646729 C269.66396294 333.37501485 266.96775291 335.74325373 263.82936096 338.25396729 C262.81201284 339.3918436 261.81501956 340.54802738 260.83106995 341.71490479 C256.23760171 347.01800225 251.27419057 351.93441461 246.30201721 356.87896729 C245.30289068 357.87622405 244.30398816 358.87370531 243.30529785 359.87139893 C240.70189147 362.47102408 238.09549427 365.0676296 235.48841858 367.66357422 C232.81831822 370.32336492 230.15111819 372.98606069 227.48365784 375.64849854 C222.26836059 380.85313616 217.0498938 386.05458069 211.82936096 391.25396729 C215.50613762 392.4795595 218.85773742 392.34009464 222.68092346 392.28131104 C224.27076494 392.26865283 225.86060882 392.25629277 227.45045471 392.24420166 C229.94516047 392.2195137 232.4397398 392.19166448 234.93434143 392.15802002 C257.18931169 391.87678806 257.18931169 391.87678806 265.82936096 398.25396729 C266.81936096 398.58396729 267.80936096 398.91396729 268.82936096 399.25396729 C269.82936096 400.87896729 269.82936096 400.87896729 270.82936096 403.25396729 C271.59040382 404.68194138 271.59040382 404.68194138 272.36682129 406.13876343 C274.60377917 411.40229184 274.25262368 416.8419751 274.22999573 422.472229 C274.24046432 424.29550217 274.24046432 424.29550217 274.25114441 426.15560913 C274.26425147 428.78852022 274.27203695 431.42079646 274.27061653 434.05367661 C274.26857316 438.22383514 274.28821526 442.39372459 274.31079102 446.56381226 C274.35168544 454.66698802 274.37034561 462.77014221 274.38696289 470.87339783 C274.40934463 481.18022378 274.44304443 491.48698678 274.49416202 501.79371083 C274.51398277 505.93171072 274.5236569 510.06956916 274.52511418 514.20761466 C274.52853172 517.39740997 274.54444409 520.58715119 274.55812073 523.7769165 C274.55429131 525.47917389 274.55429131 525.47917389 274.55038452 527.21582031 C274.61978774 538.01498181 275.60340105 546.02800737 283.51686096 553.94146729 C292.03002196 560.46645998 302.39886758 559.68187824 312.57936096 559.61724854 C314.20403544 559.61672884 315.82871054 559.61725077 317.4533844 559.61875916 C320.84573347 559.61866984 324.23784291 559.60832321 327.63014221 559.59014893 C331.95729101 559.56746334 336.28409043 559.56692211 340.61128235 559.57366657 C343.96236727 559.57702356 347.31337395 559.57034404 350.66444397 559.56053734 C352.25908498 559.55671482 353.85373473 559.55552475 355.44837952 559.55712318 C368.08998629 559.5592424 378.21604513 559.46839034 387.82936096 550.25396729 C391.66139721 545.10466857 391.95451673 540.66357115 391.96358204 534.34976578 C391.96593427 533.65193721 391.9682865 532.95410865 391.97071001 532.23513377 C391.97739303 529.8852966 391.976942 527.53551482 391.97653198 525.18566895 C391.97983103 523.48849966 391.98355668 521.79133116 391.98767346 520.09416366 C391.99769671 515.42119637 392.00141077 510.74824192 392.00406277 506.07526541 C392.00796478 501.03900195 392.0175431 496.00274867 392.02627563 490.9664917 C392.04604153 478.80042398 392.05610579 466.63435543 392.06500342 454.46827567 C392.06938556 448.74117645 392.07475251 443.01407816 392.07999229 437.28697968 C392.09700365 418.25317197 392.1114988 399.21936483 392.11874104 380.18555069 C392.12065097 375.24579111 392.1225713 370.30603153 392.12452698 365.36627197 C392.12501072 364.13849918 392.12549446 362.91072638 392.12599286 361.64574835 C392.13429686 341.74740998 392.15964046 321.84913166 392.19210766 301.95081952 C392.22515777 281.52906894 392.24318789 261.1073489 392.24638528 240.68557143 C392.24855212 229.21643205 392.25732645 217.74738026 392.28284645 206.27826691 C392.30452534 196.51280594 392.31261767 186.74745384 392.30287967 176.98197153 C392.29832701 171.99871182 392.30027735 167.01567688 392.31964111 162.03244781 C392.33721632 157.4701509 392.33632104 152.90824368 392.32074382 148.34594294 C392.31835918 146.69585908 392.32273557 145.04574862 392.33457247 143.39570549 C392.42928504 130.34436045 392.42928504 130.34436045 386.08326721 119.23052979 C385.24602112 118.56150635 385.24602112 118.56150635 384.39186096 117.87896729 C383.83627502 117.41748291 383.28068909 116.95599854 382.70826721 116.48052979 C377.83205041 113.29730302 373.28805581 112.95252984 367.58595276 112.9475708 C366.76901947 112.93924728 365.95208618 112.93092377 365.11039734 112.92234802 C362.41640927 112.89830232 359.72266363 112.88948237 357.02857971 112.88287354 C355.14916921 112.87390273 353.26975941 112.86478081 351.39035034 112.85551453 C347.45211555 112.83903649 343.51396565 112.83132663 339.57569885 112.82843018 C334.54186337 112.82304911 329.50883137 112.78537538 324.47522259 112.73968601 C320.59317142 112.70986809 316.71131259 112.70270558 312.82915688 112.70170403 C310.97407669 112.69751076 309.11899545 112.68511246 307.26402855 112.66418648 C304.66241111 112.63717452 302.06264121 112.64212595 299.46095276 112.65460205 C298.32365974 112.63235062 298.32365974 112.63235062 297.16339111 112.60964966 C290.01123796 112.70677556 284.10795955 116.1462354 279.45436096 121.56646729 Z " fill="#1774FE" transform="translate(148.17063903808594,1.74603271484375)"/>
<path d="M0 0 C3 1 3 1 3 1 Z " fill="#0055FF" transform="translate(264,675)"/>
<path d="" fill="#0000FF" transform="translate(0,0)"/>
<path d="" fill="#0000FF" transform="translate(0,0)"/>
<path d="M0 0 C2 1 2 1 2 1 Z " fill="#0040FF" transform="translate(548,675)"/>
<path d="M0 0 C2 1 2 1 2 1 Z " fill="#006AFF" transform="translate(540,675)"/>
<path d="M0 0 C2 1 2 1 2 1 Z " fill="#006AFF" transform="translate(537,675)"/>
<path d="M0 0 C2 1 2 1 2 1 Z " fill="#0040FF" transform="translate(532,675)"/>
<path d="M0 0 C2 1 2 1 2 1 Z " fill="#0040FF" transform="translate(529,675)"/>
<path d="M0 0 C2 1 2 1 2 1 Z " fill="#0040FF" transform="translate(524,675)"/>
<path d="M0 0 C2 1 2 1 2 1 Z " fill="#006AFF" transform="translate(521,675)"/>
<path d="M0 0 C2 1 2 1 2 1 Z " fill="#006AFF" transform="translate(516,675)"/>
<path d="M0 0 C2 1 2 1 2 1 Z " fill="#0000FF" transform="translate(513,675)"/>
<path d="M0 0 C2 1 2 1 2 1 Z " fill="#0000FF" transform="translate(508,675)"/>
<path d="M0 0 C2 1 2 1 2 1 Z " fill="#0040FF" transform="translate(505,675)"/>
<path d="M0 0 C2 1 2 1 2 1 Z " fill="#006AFF" transform="translate(500,675)"/>
<path d="M0 0 C2 1 2 1 2 1 Z " fill="#0040FF" transform="translate(497,675)"/>
<path d="M0 0 C2 1 2 1 2 1 Z " fill="#0000FF" transform="translate(492,675)"/>
<path d="M0 0 C2 1 2 1 2 1 Z " fill="#0040FF" transform="translate(489,675)"/>
<path d="M0 0 C2 1 2 1 2 1 Z " fill="#0040FF" transform="translate(476,675)"/>
<path d="M0 0 C2 1 2 1 2 1 Z " fill="#006AFF" transform="translate(473,675)"/>
<path d="M0 0 C2 1 2 1 2 1 Z " fill="#0080FF" transform="translate(468,675)"/>
<path d="M0 0 C2 1 2 1 2 1 Z " fill="#002AFF" transform="translate(457,675)"/>
<path d="M0 0 C2 1 2 1 2 1 Z " fill="#0080FF" transform="translate(452,675)"/>
<path d="M0 0 C2 1 2 1 2 1 Z " fill="#0080FF" transform="translate(444,675)"/>
<path d="M0 0 C2 1 2 1 2 1 Z " fill="#0040FF" transform="translate(433,675)"/>
<path d="M0 0 C2 1 2 1 2 1 Z " fill="#002AFF" transform="translate(428,675)"/>
<path d="M0 0 C2 1 2 1 2 1 Z " fill="#0040FF" transform="translate(425,675)"/>
<path d="M0 0 C2 1 2 1 2 1 Z " fill="#0080FF" transform="translate(420,675)"/>
<path d="M0 0 C2 1 2 1 2 1 Z " fill="#002AFF" transform="translate(417,675)"/>
<path d="M0 0 C2 1 2 1 2 1 Z " fill="#0055FF" transform="translate(412,675)"/>
<path d="M0 0 C2 1 2 1 2 1 Z " fill="#006AFF" transform="translate(409,675)"/>
<path d="M0 0 C2 1 2 1 2 1 Z " fill="#0000FF" transform="translate(393,675)"/>
<path d="M0 0 C2 1 2 1 2 1 Z " fill="#002AFF" transform="translate(388,675)"/>
<path d="M0 0 C2 1 2 1 2 1 Z " fill="#0040FF" transform="translate(372,675)"/>
<path d="M0 0 C2 1 2 1 2 1 Z " fill="#2080FF" transform="translate(356,675)"/>
<path d="M0 0 C2 1 2 1 2 1 Z " fill="#0000FF" transform="translate(345,675)"/>
<path d="M0 0 C2 1 2 1 2 1 Z " fill="#002AFF" transform="translate(332,675)"/>
<path d="M0 0 C2 1 2 1 2 1 Z " fill="#0040FF" transform="translate(308,675)"/>
<path d="M0 0 C2 1 2 1 2 1 Z " fill="#0080FF" transform="translate(305,675)"/>
<path d="M0 0 C2 1 2 1 2 1 Z " fill="#0040FF" transform="translate(300,675)"/>
<path d="M0 0 C2 1 2 1 2 1 Z " fill="#0040FF" transform="translate(273,675)"/>
<path d="M0 0 C2 1 2 1 2 1 Z " fill="#002AFF" transform="translate(260,675)"/>
<path d="M0 0 C2 1 2 1 2 1 Z " fill="#0040FF" transform="translate(252,675)"/>
<path d="M0 0 C2 1 2 1 2 1 Z " fill="#0000FF" transform="translate(236,675)"/>
<path d="M0 0 C2 1 2 1 2 1 Z " fill="#002AFF" transform="translate(233,675)"/>
<path d="M0 0 C2 1 2 1 2 1 Z " fill="#0000FF" transform="translate(228,675)"/>
<path d="M0 0 C2 1 2 1 2 1 Z " fill="#0040FF" transform="translate(204,675)"/>
<path d="M0 0 C2 1 2 1 2 1 Z " fill="#0040FF" transform="translate(185,675)"/>
<path d="M0 0 C2 1 2 1 2 1 Z " fill="#002AFF" transform="translate(180,675)"/>
<path d="M0 0 C2 1 2 1 2 1 Z " fill="#002AFF" transform="translate(177,675)"/>
<path d="M0 0 C2 1 2 1 2 1 Z " fill="#0040FF" transform="translate(172,675)"/>
<path d="M0 0 C2 1 2 1 2 1 Z " fill="#0040FF" transform="translate(169,675)"/>
<path d="M0 0 C2 1 2 1 2 1 Z " fill="#0080FF" transform="translate(164,675)"/>
<path d="M0 0 C2 1 2 1 2 1 Z " fill="#0040FF" transform="translate(161,675)"/>
<path d="M0 0 C2 1 2 1 2 1 Z " fill="#0040FF" transform="translate(156,675)"/>
<path d="M0 0 C2 1 2 1 2 1 Z " fill="#0040FF" transform="translate(153,675)"/>
<path d="M0 0 C2 1 2 1 2 1 Z " fill="#0080FF" transform="translate(148,675)"/>
<path d="M0 0 C2 1 2 1 2 1 Z " fill="#0040FF" transform="translate(140,675)"/>
<path d="M0 0 C2 1 2 1 2 1 Z " fill="#0040FF" transform="translate(132,675)"/>
<path d="M0 0 C2 1 2 1 2 1 Z " fill="#0000FF" transform="translate(124,675)"/>
<path d="M0 0 C2 1 2 1 2 1 Z " fill="#0040FF" transform="translate(593,667)"/>
<path d="" fill="#006AFF" transform="translate(0,0)"/>
<path d="M0 0 C2 1 2 1 2 1 Z " fill="#0040FF" transform="translate(284,273)"/>
<path d="" fill="#0000FF" transform="translate(0,0)"/>
<path d="" fill="#0080FF" transform="translate(0,0)"/>
<path d="" fill="#0080FF" transform="translate(0,0)"/>
<path d="" fill="#0000FF" transform="translate(0,0)"/>
<path d="" fill="#0080FF" transform="translate(0,0)"/>
<path d="" fill="#0000FF" transform="translate(0,0)"/>
<path d="" fill="#0000FF" transform="translate(0,0)"/>
<path d="" fill="#0000FF" transform="translate(0,0)"/>
<path d="" fill="#0080FF" transform="translate(0,0)"/>
<path d="" fill="#0055FF" transform="translate(0,0)"/>
<path d="" fill="#0000FF" transform="translate(0,0)"/>
<path d="" fill="#0080FF" transform="translate(0,0)"/>
<path d="" fill="#0080FF" transform="translate(0,0)"/>
<path d="" fill="#0080FF" transform="translate(0,0)"/>
<path d="" fill="#0080FF" transform="translate(0,0)"/>
<path d="" fill="#0080FF" transform="translate(0,0)"/>
<path d="" fill="#0080FF" transform="translate(0,0)"/>
<path d="" fill="#0000FF" transform="translate(0,0)"/>
<path d="" fill="#0080FF" transform="translate(0,0)"/>
<path d="" fill="#0080FF" transform="translate(0,0)"/>
<path d="" fill="#0000FF" transform="translate(0,0)"/>
<path d="" fill="#0080FF" transform="translate(0,0)"/>
<path d="" fill="#0080FF" transform="translate(0,0)"/>
<path d="" fill="#0080FF" transform="translate(0,0)"/>
<path d="" fill="#0080FF" transform="translate(0,0)"/>
<path d="" fill="#0000FF" transform="translate(0,0)"/>
<path d="" fill="#0080FF" transform="translate(0,0)"/>
<path d="" fill="#0000FF" transform="translate(0,0)"/>
<path d="" fill="#0000FF" transform="translate(0,0)"/>
<path d="" fill="#0000FF" transform="translate(0,0)"/>
<path d="" fill="#0080FF" transform="translate(0,0)"/>
<path d="" fill="#0080FF" transform="translate(0,0)"/>
<path d="" fill="#0000FF" transform="translate(0,0)"/>
<path d="" fill="#0000FF" transform="translate(0,0)"/>
<path d="" fill="#0000FF" transform="translate(0,0)"/>
<path d="" fill="#0000FF" transform="translate(0,0)"/>
<path d="" fill="#0000FF" transform="translate(0,0)"/>
<path d="" fill="#0000FF" transform="translate(0,0)"/>
<path d="" fill="#0080FF" transform="translate(0,0)"/>
<path d="" fill="#0080FF" transform="translate(0,0)"/>
<path d="" fill="#0080FF" transform="translate(0,0)"/>
<path d="" fill="#0000FF" transform="translate(0,0)"/>
<path d="" fill="#0000FF" transform="translate(0,0)"/>
<path d="" fill="#0080FF" transform="translate(0,0)"/>
<path d="" fill="#0000FF" transform="translate(0,0)"/>
<path d="" fill="#0000FF" transform="translate(0,0)"/>
<path d="" fill="#0000FF" transform="translate(0,0)"/>
<path d="" fill="#0000FF" transform="translate(0,0)"/>
<path d="" fill="#0000FF" transform="translate(0,0)"/>
<path d="" fill="#0000FF" transform="translate(0,0)"/>
<path d="" fill="#0000FF" transform="translate(0,0)"/>
<path d="" fill="#0000FF" transform="translate(0,0)"/>
<path d="" fill="#0000FF" transform="translate(0,0)"/>
<path d="" fill="#0080FF" transform="translate(0,0)"/>
<path d="" fill="#0080FF" transform="translate(0,0)"/>
<path d="" fill="#0000FF" transform="translate(0,0)"/>
<path d="" fill="#0000FF" transform="translate(0,0)"/>
<path d="" fill="#0000FF" transform="translate(0,0)"/>
<path d="" fill="#0000FF" transform="translate(0,0)"/>
<path d="" fill="#0000FF" transform="translate(0,0)"/>
<path d="" fill="#0000FF" transform="translate(0,0)"/>
<path d="" fill="#0000FF" transform="translate(0,0)"/>
<path d="" fill="#0000FF" transform="translate(0,0)"/>
<path d="" fill="#0000FF" transform="translate(0,0)"/>
<path d="" fill="#0000FF" transform="translate(0,0)"/>
<path d="" fill="#0055FF" transform="translate(0,0)"/>
<path d="" fill="#0000FF" transform="translate(0,0)"/>
<path d="" fill="#0000FF" transform="translate(0,0)"/>
<path d="" fill="#0000FF" transform="translate(0,0)"/>
<path d="" fill="#0080FF" transform="translate(0,0)"/>
<path d="" fill="#0000FF" transform="translate(0,0)"/>
<path d="" fill="#0000FF" transform="translate(0,0)"/>
<path d="" fill="#0000FF" transform="translate(0,0)"/>
<path d="" fill="#0080FF" transform="translate(0,0)"/>
<path d="" fill="#0000FF" transform="translate(0,0)"/>
<path d="" fill="#0000FF" transform="translate(0,0)"/>
<path d="" fill="#0000FF" transform="translate(0,0)"/>
<path d="" fill="#0080FF" transform="translate(0,0)"/>
<path d="" fill="#0000FF" transform="translate(0,0)"/>
</svg>
